<svg xmlns="http://www.w3.org/2000/svg" width="1200" height="630" viewBox="0 0 1200 630" role="img" aria-labelledby="title desc">
  <title id="title">Vellum — Thoughts take shape</title><desc id="desc">A prismatic freeform canvas for notes, tasks, and visual thinking</desc>
  <defs>
    <linearGradient id="bg" x1="80" y1="20" x2="1120" y2="610" gradientUnits="userSpaceOnUse"><stop stop-color="#191A32"/><stop offset=".48" stop-color="#090A15"/><stop offset="1" stop-color="#05060C"/></linearGradient>
    <radialGradient id="iris" cx="0" cy="0" r="1" gradientTransform="translate(170 25) rotate(38) scale(570 440)" gradientUnits="userSpaceOnUse"><stop stop-color="#7B70FF" stop-opacity=".52"/><stop offset="1" stop-color="#6879FF" stop-opacity="0"/></radialGradient>
    <radialGradient id="rose" cx="0" cy="0" r="1" gradientTransform="translate(1080 610) rotate(-140) scale(520 370)" gradientUnits="userSpaceOnUse"><stop stop-color="#E45CBB" stop-opacity=".25"/><stop offset="1" stop-color="#E45CBB" stop-opacity="0"/></radialGradient>
    <linearGradient id="sheetA" x1="23" y1="22" x2="102" y2="112" gradientUnits="userSpaceOnUse"><stop stop-color="#42D8D1"/><stop offset="1" stop-color="#427DFF"/></linearGradient><linearGradient id="sheetB" x1="46" y1="18" x2="108" y2="112" gradientUnits="userSpaceOnUse"><stop stop-color="#D49CFF"/><stop offset="1" stop-color="#695CFF"/></linearGradient><linearGradient id="sheetC" x1="38" y1="23" x2="105" y2="110" gradientUnits="userSpaceOnUse"><stop stop-color="#FFFFFF"/><stop offset=".35" stop-color="#DCD8FF"/><stop offset="1" stop-color="#568CFF"/></linearGradient>
    <linearGradient id="headline" x1="108" y1="260" x2="940" y2="450" gradientUnits="userSpaceOnUse"><stop stop-color="#FFFFFF"/><stop offset=".62" stop-color="#E9E8FF"/><stop offset="1" stop-color="#AAB7FF"/></linearGradient>
    <filter id="noise"><feTurbulence type="fractalNoise" baseFrequency=".78" numOctaves="4" stitchTiles="stitch"/><feColorMatrix values="1 0 0 0 0 0 1 0 0 0 0 0 1 0 0 0 0 0 .09 0"/></filter><filter id="shadow" x="-60%" y="-60%" width="220%" height="220%"><feDropShadow dx="0" dy="18" stdDeviation="20" flood-color="#5146FF" flood-opacity=".45"/></filter>
  </defs>
  <rect width="1200" height="630" rx="48" fill="url(#bg)"/><rect width="1200" height="630" rx="48" fill="url(#iris)"/><rect width="1200" height="630" rx="48" fill="url(#rose)"/><rect width="1200" height="630" rx="48" filter="url(#noise)" opacity=".38"/>
  <g transform="translate(86 72)" filter="url(#shadow)"><rect width="132" height="132" rx="36" fill="#0A0C16"/><rect x="1" y="1" width="130" height="130" rx="35" fill="none" stroke="white" stroke-opacity=".16" stroke-width="2"/><rect x="25" y="29" width="57" height="73" rx="14" transform="rotate(-9 25 29)" fill="url(#sheetA)"/><rect x="49" y="24" width="55" height="77" rx="14" transform="rotate(8 49 24)" fill="url(#sheetB)"/><path d="M36 33a13 13 0 0 1 13-13h27c5 0 10 2 13 6l6 7c2 3 3 6 3 9v47a13 13 0 0 1-13 13H49a13 13 0 0 1-13-13V33Z" fill="url(#sheetC)"/><path d="M76 21v13a9 9 0 0 0 9 9h12" fill="none" stroke="white" stroke-opacity=".7" stroke-width="2"/></g>
  <text x="246" y="156" fill="#F7F7FB" font-family="-apple-system, BlinkMacSystemFont, 'Helvetica Neue', Arial, sans-serif" font-size="56" font-weight="650" letter-spacing="-2">Vellum</text>
  <text x="88" y="350" fill="url(#headline)" font-family="-apple-system, BlinkMacSystemFont, 'Helvetica Neue', Arial, sans-serif" font-size="106" font-weight="650" letter-spacing="-6">Thoughts take shape.</text>
  <text x="94" y="426" fill="#A9AFC2" font-family="-apple-system, BlinkMacSystemFont, 'Helvetica Neue', Arial, sans-serif" font-size="30" letter-spacing="-.4">A freeform canvas for notes, tasks, and visual thinking.</text>
  <g transform="translate(92 514)"><rect width="170" height="46" rx="23" fill="white" fill-opacity=".07" stroke="white" stroke-opacity=".1"/><circle cx="24" cy="23" r="5" fill="#36E6B0"/><text x="42" y="30" fill="#D8DBE6" font-family="ui-monospace, SFMono-Regular, Menlo, monospace" font-size="16" letter-spacing="1.4">LOCAL FIRST</text></g>
</svg>
